#tb 0: 1/25
#media_type 0: video
#codec_id 0: rawvideo
#dimensions 0: 352x288
#sar 0: 0/1
0,          0,          0,        1,   405504, 0xf47064c3
0,          1,          1,        1,   405504, 0x6c47b824
0,          2,          2,        1,   405504, 0x423e0cdf
0,          3,          3,        1,   405504, 0xb74f9068
0,          4,          4,        1,   405504, 0x02dddf0e
0,          5,          5,        1,   405504, 0x3c9c4513
0,          6,          6,        1,   405504, 0x9ca0fc6b
0,          7,          7,        1,   405504, 0xa831ce67
0,          8,          8,        1,   405504, 0x2dfd0f06
0,          9,          9,        1,   405504, 0x8e3bc7ed
0,         10,         10,        1,   405504, 0xa39e63be
0,         11,         11,        1,   405504, 0xd081998b
0,         12,         12,        1,   405504, 0x374c0f19
0,         13,         13,        1,   405504, 0x9a37e794
0,         14,         14,        1,   405504, 0x63677e24
0,         15,         15,        1,   405504, 0x2dc28d27
0,         16,         16,        1,   405504, 0x68f76139
0,         17,         17,        1,   405504, 0x70645271
0,         18,         18,        1,   405504, 0xe6fe93fb
0,         19,         19,        1,   405504, 0x43c4906b
0,         20,         20,        1,   405504, 0xa1cdd4d4
0,         21,         21,        1,   405504, 0x9fbaa625
0,         22,         22,        1,   405504, 0x2b588816
0,         23,         23,        1,   405504, 0x7171918b
0,         24,         24,        1,   405504, 0xdf100183
0,         25,         25,        1,   405504, 0x51ef6786
0,         26,         26,        1,   405504, 0x441045d8
0,         27,         27,        1,   405504, 0x48baa3e1
0,         28,         28,        1,   405504, 0x07168bd2
0,         29,         29,        1,   405504, 0x2dfc3610
0,         30,         30,        1,   405504, 0x315e8a54
0,         31,         31,        1,   405504, 0xdff959de
0,         32,         32,        1,   405504, 0x1434c1ab
0,         33,         33,        1,   405504, 0x87b7ab88
0,         34,         34,        1,   405504, 0x7e6181e9
0,         35,         35,        1,   405504, 0x5fb5f6e1
0,         36,         36,        1,   405504, 0xe0730534
0,         37,         37,        1,   405504, 0x1933a171
0,         38,         38,        1,   405504, 0xc765461d
0,         39,         39,        1,   405504, 0x73557ab5
0,         40,         40,        1,   405504, 0x64c886b0
0,         41,         41,        1,   405504, 0xd4b4a793
0,         42,         42,        1,   405504, 0x1a8180aa
0,         43,         43,        1,   405504, 0xae325154
0,         44,         44,        1,   405504, 0x6c1b8a55
0,         45,         45,        1,   405504, 0x5f3c1853
0,         46,         46,        1,   405504, 0xf2f229dd
0,         47,         47,        1,   405504, 0xe6801369
0,         48,         48,        1,   405504, 0x8c80add3
0,         49,         49,        1,   405504, 0xf9ff3958
